# xmcd CD database file
#
# Track frame offsets:
#	150
#	23139
#	46891
#	71075
#	96143
#	121475
#	146521
#	167159
#	184861
#	212500
#	238143
#	261087
#	288060
#
# Disc length: 4209 seconds
#
# Revision: 2
# Processed by: cddbd v1.5.1PL0 Copyright (c) Steve Scherf et al.
# Submitted via: CdAid (MTCDDB.DLL V2003.12.21)
#
DISCID=ba106f0d
DTITLE=The Williams Brothers - Still Here
DYEAR=2003
DGENRE=Gospel
TTITLE0=Come As You Are
TTITLE1=Walk With Me
TTITLE2=Still Here
TTITLE3=I Don't Know Why
TTITLE4=Good To Me
TTITLE5=My Purpose
TTITLE6=Heaven Is Waiting
TTITLE7=No In The Middle
TTITLE8=All I Need Is You
TTITLE9=I Worship You
TTITLE10=Tell Somebody
TTITLE11=I Felt A Change - (Part 1)
TTITLE12=I Felt A Change - (Part 2)
EXTD=ID3G:  38 YEAR: 2003
EXTT0=
EXTT1=
EXTT2=
EXTT3=
EXTT4=
EXTT5=
EXTT6=
EXTT7=
EXTT8=
EXTT9=
EXTT10=
EXTT11=
EXTT12=I Felt A Change (Part 2) featuring Paul Porter
PLAYORDER=
